<?xml version="1.0" standalone="no"?>
<svg xmlns:xlink="http://www.w3.org/1999/xlink" id="wave" style="transform:rotate(0deg); transition: 0.3s" viewBox="0 0 1440 470" version="1.1" xmlns="http://www.w3.org/2000/svg"><defs><linearGradient id="sw-gradient-0" x1="0" x2="0" y1="1" y2="0"><stop stop-color="rgba(228, 241, 240, 1)" offset="0%"/><stop stop-color="rgba(228, 241, 240, 1)" offset="100%"/></linearGradient></defs><path style="transform:translate(0, 0px); opacity:1" fill="url(#sw-gradient-0)" d="M0,0L60,31.3C120,63,240,125,360,180.2C480,235,600,282,720,297.7C840,313,960,298,1080,305.5C1200,313,1320,345,1440,368.2C1560,392,1680,407,1800,360.3C1920,313,2040,204,2160,156.7C2280,110,2400,125,2520,172.3C2640,219,2760,298,2880,344.7C3000,392,3120,407,3240,344.7C3360,282,3480,141,3600,78.3C3720,16,3840,31,3960,31.3C4080,31,4200,16,4320,39.2C4440,63,4560,125,4680,180.2C4800,235,4920,282,5040,321.2C5160,360,5280,392,5400,407.3C5520,423,5640,423,5760,360.3C5880,298,6000,172,6120,172.3C6240,172,6360,298,6480,329C6600,360,6720,298,6840,282C6960,266,7080,298,7200,321.2C7320,345,7440,360,7560,313.3C7680,266,7800,157,7920,133.2C8040,110,8160,172,8280,195.8C8400,219,8520,204,8580,195.8L8640,188L8640,470L8580,470C8520,470,8400,470,8280,470C8160,470,8040,470,7920,470C7800,470,7680,470,7560,470C7440,470,7320,470,7200,470C7080,470,6960,470,6840,470C6720,470,6600,470,6480,470C6360,470,6240,470,6120,470C6000,470,5880,470,5760,470C5640,470,5520,470,5400,470C5280,470,5160,470,5040,470C4920,470,4800,470,4680,470C4560,470,4440,470,4320,470C4200,470,4080,470,3960,470C3840,470,3720,470,3600,470C3480,470,3360,470,3240,470C3120,470,3000,470,2880,470C2760,470,2640,470,2520,470C2400,470,2280,470,2160,470C2040,470,1920,470,1800,470C1680,470,1560,470,1440,470C1320,470,1200,470,1080,470C960,470,840,470,720,470C600,470,480,470,360,470C240,470,120,470,60,470L0,470Z"/></svg>