<svg id="Capa_1" enable-background="new 0 0 512 512" height="512" viewBox="0 0 512 512" width="512" xmlns="http://www.w3.org/2000/svg"><g id="XMLID_1213_"><g id="XMLID_198_"><path id="XMLID_188_" d="m471.396 326.378v-102.946c0-40.589-22.514-77.194-58.755-95.529-4.926-2.493-10.944-.52-13.438 4.409-2.493 4.928-.52 10.944 4.408 13.437 29.475 14.912 47.784 44.678 47.784 77.683v94.237c-7.339-2.11-15.078-3.264-23.086-3.264h-26.741v-15.242c16.556-11.702 27.396-30.976 27.396-52.746v-30.608c0-5.523-4.478-10-10-10h-18.131c-6.183 0-11.979-2.64-16.042-7.1 2.517-5.652 3.928-11.9 3.928-18.476 0-5.523-4.478-10-10-10s-10 4.477-10 10c0 14.103-11.473 25.576-25.575 25.576h-33.316c-5.522 0-10 4.477-10 10v30.608c0 21.672 10.743 40.869 27.172 52.586v15.402h-30.322c-5.585-5.056-12.114-9.083-19.282-11.802v-79.171c0-32.967 18.279-62.718 47.705-77.643 4.926-2.498 6.894-8.516 4.395-13.442-2.498-4.926-8.518-6.894-13.441-4.395-36.182 18.351-58.658 54.937-58.658 95.479v74.81h-71.064v-14.791c20.403-13.473 33.47-37.722 33.47-66.593v-26.555c11.565-12.024 18.697-28.341 18.697-46.302v-26.384l3.331 3.331c3.751 3.75 8.737 5.816 14.042 5.816s10.291-2.065 14.042-5.816l43.257-43.257c17.747-17.747 17.747-46.624 0-64.371-15.55-15.548-39.638-17.473-57.299-5.782-17.665-11.691-41.751-9.764-57.299 5.782-17.747 17.747-17.747 46.624 0 64.37l29.672 29.672h-85.761c-36.865 0-66.857 29.992-66.857 66.858v48.568c0 25.548 13.371 48.017 33.47 60.824v14.629h-34.345c-41.219.001-74.753 33.536-74.753 74.755v88.994c0 27.57 22.43 50 50 50h412c27.57 0 50-22.43 50-50v-63.895c0-30.398-16.295-57.057-40.604-71.716zm-258.679-262.829c-9.949-9.949-9.949-26.137 0-36.085 4.974-4.974 11.508-7.461 18.042-7.461 6.535 0 13.069 2.487 18.043 7.461 3.906 3.905 10.236 3.905 14.143 0 9.947-9.949 26.136-9.949 36.085 0s9.949 26.137 0 36.086l-43.156 43.157zm107.112 182.868v-20.608h23.316c11.273 0 21.595-4.123 29.56-10.929 7.573 6.917 17.56 10.929 28.129 10.929h8.131v20.608c0 24.575-19.993 44.568-44.568 44.568s-44.568-19.994-44.568-44.568zm61.739 62.231v17.461c0 9.53-7.754 17.284-17.284 17.284s-17.283-7.754-17.283-17.284v-17.525c5.539 1.552 11.368 2.4 17.396 2.4 5.946.001 11.7-.824 17.171-2.336zm-125.695 10.011c22.535 0 40.869 18.334 40.869 40.869s-18.334 40.869-40.869 40.869-40.869-18.334-40.869-40.869 18.334-40.869 40.869-40.869zm-160.245-144.438c0-25.837 21.021-46.858 46.857-46.858h76.015v16.638c0 25.837-21.021 46.858-46.857 46.858h-76.015zm0 48.568v-11.93h76.015c10.057 0 19.595-2.246 28.16-6.241v12.24c0 33.618-21.905 58.019-52.087 58.019-28.722-.001-52.088-23.367-52.088-52.088zm70.705 69.666v17.575c0 10.266-8.352 18.618-18.617 18.618s-18.618-8.353-18.618-18.618v-17.605c5.943 1.59 12.181 2.451 18.618 2.451 6.485 0 12.717-.839 18.617-2.421zm-15.487 199.534h-100.846c-16.542 0-30-13.458-30-30v-88.994c0-30.191 24.562-54.754 54.753-54.754h35.232c3.775 17.362 19.255 30.407 37.731 30.407s33.955-13.046 37.73-30.407h25.753c-10.043 10.858-16.195 25.365-16.195 41.287 0 18.963 8.72 35.925 22.356 47.097-16.294 6.59-30.37 18.141-40.035 33.364h-105.452c-5.522 0-10 4.478-10 10s4.478 10 10 10h78.973zm33.184 0h-13.185v-32h13.185c8.822 0 16 7.178 16 16s-7.177 16-16 16zm111.449 0h-79.212c2.404-4.823 3.764-10.255 3.764-16 0-14.309-8.393-26.693-20.514-32.493 12.273-14.492 30.401-23.099 49.844-23.099h13.026c19.442 0 37.57 8.606 49.842 23.098-12.121 5.8-20.514 18.184-20.514 32.493 0 5.747 1.36 11.178 3.764 16.001zm45.421 0h-13.186c-8.822 0-16-7.178-16-16s7.178-16 16-16h13.186zm151.1-30c0 16.542-13.458 30-30 30h-101.1v-32h78.973c5.522 0 10-4.478 10-10s-4.478-10-10-10h-105.453c-9.665-15.223-23.74-26.774-40.034-33.365 13.637-11.172 22.356-28.133 22.356-47.096 0-8.957-1.96-17.459-5.449-25.124h16.65c3.782 16.578 18.635 28.989 36.341 28.989 17.707 0 32.56-12.412 36.342-28.989h27.683c35.119 0 63.69 28.571 63.69 63.69v63.895z"/><path id="XMLID_612_" d="m364.34 136.379c2.63 0 5.21-1.07 7.07-2.93 1.859-1.86 2.93-4.44 2.93-7.07 0-2.64-1.07-5.21-2.93-7.07s-4.44-2.93-7.07-2.93-5.21 1.07-7.07 2.93c-1.859 1.86-2.93 4.43-2.93 7.07 0 2.63 1.07 5.21 2.93 7.07s4.44 2.93 7.07 2.93z"/></g></g></svg>