<?xml version="1.0" standalone="no"?>
<!DOCTYPE svg PUBLIC "-//W3C//DTD SVG 20010904//EN"
 "http://www.w3.org/TR/2001/REC-SVG-20010904/DTD/svg10.dtd">
<svg version="1.0" xmlns="http://www.w3.org/2000/svg"
 width="559.000000pt" height="559.000000pt" viewBox="0 0 559.000000 559.000000"
 preserveAspectRatio="xMidYMid meet">
<metadata>
Created by potrace 1.11, written by Peter Selinger 2001-2013
</metadata>
<g transform="translate(0.000000,559.000000) scale(0.100000,-0.100000)"
fill="#000000" stroke="none">
<path d="M2392 4872 l-23 -3 1 -592 c0 -326 0 -597 0 -603 0 -8 -66 -11 -237
-8 -411 7 -735 13 -825 17 -59 3 -88 0 -89 -7 -6 -44 -3 -879 2 -888 6 -9 140
-12 521 -12 282 -1 523 1 535 3 13 2 26 14 32 32 5 16 8 29 5 29 -3 0 1 10 8
23 7 12 13 24 13 27 5 21 83 173 106 207 17 24 27 43 24 43 -3 0 2 8 10 18 9
9 38 46 65 82 68 89 130 151 228 231 125 103 368 221 547 266 81 20 113 27
170 38 11 2 20 4 20 5 0 3 116 12 163 13 27 0 42 5 42 14 0 7 -8 13 -17 14
-44 3 -88 7 -88 8 0 5 -112 12 -207 13 -58 0 -111 4 -118 8 -8 5 -11 148 -11
506 0 275 -3 504 -7 510 -6 9 -808 15 -870 6z"/>
<path d="M1688 4600 c-27 -11 -48 -17 -48 -14 0 2 -10 -4 -22 -16 -12 -11 -27
-20 -34 -20 -20 0 -104 -47 -97 -54 4 -3 -1 -6 -9 -6 -13 0 -145 -80 -181
-110 -7 -6 -43 -35 -82 -66 -87 -69 -245 -230 -305 -309 -25 -33 -48 -61 -52
-63 -5 -2 -8 -10 -8 -17 0 -7 -4 -15 -8 -17 -21 -8 -149 -239 -197 -353 -53
-126 -120 -357 -131 -445 -3 -25 -8 -54 -11 -65 -29 -95 -17 -464 20 -630 3
-11 11 -49 17 -85 7 -36 16 -69 20 -75 4 -5 10 -23 13 -40 3 -16 11 -43 18
-60 7 -16 13 -36 15 -44 8 -40 124 -291 144 -311 8 -8 29 -42 47 -78 9 -17 20
-32 25 -32 4 0 8 -7 8 -15 0 -8 5 -15 10 -15 6 0 10 -5 10 -11 0 -16 74 -108
172 -213 26 -28 48 -54 48 -58 0 -5 5 -8 11 -8 6 0 31 -20 55 -45 24 -24 44
-42 44 -39 0 2 13 -9 29 -25 16 -16 32 -27 35 -24 3 4 6 1 6 -5 0 -7 5 -12 11
-12 7 0 21 -10 33 -23 11 -12 25 -23 29 -24 5 0 33 -17 64 -37 30 -20 59 -36
64 -36 5 0 9 -4 9 -8 0 -5 16 -14 35 -22 19 -8 35 -17 35 -22 0 -4 3 -7 8 -6
4 1 54 -21 112 -49 58 -27 123 -56 145 -63 22 -7 44 -16 49 -21 6 -5 20 -9 31
-9 12 0 25 -3 29 -7 12 -12 115 -38 231 -58 17 -2 41 -7 55 -10 126 -25 373
-26 530 -1 49 8 143 24 170 29 8 2 22 6 30 10 15 6 130 39 140 40 3 1 41 16
85 35 44 19 89 36 100 39 11 3 27 12 35 19 8 7 18 13 22 13 11 2 142 65 148
72 3 3 28 19 55 34 65 38 179 116 183 127 2 4 7 8 12 8 23 0 232 206 310 305
30 39 57 72 61 75 22 18 169 285 169 307 0 7 5 13 11 13 5 0 7 5 4 10 -3 5 -1
10 5 10 6 0 9 3 7 8 -3 4 3 25 14 46 10 22 19 43 19 47 0 4 5 20 12 36 6 15
12 33 13 39 2 6 6 22 10 35 7 23 7 24 -9 4 -8 -11 -16 -24 -16 -28 0 -14 -53
-122 -63 -128 -5 -3 -9 -9 -9 -12 0 -19 -12 -47 -19 -47 -5 0 -9 -6 -9 -14 0
-7 -7 -20 -16 -27 -9 -7 -20 -22 -25 -34 -13 -28 -31 -57 -49 -75 -8 -8 -29
-35 -45 -60 -17 -24 -82 -96 -146 -160 -155 -155 -183 -180 -196 -180 -6 0
-13 -4 -15 -8 -7 -17 -211 -148 -289 -184 -94 -45 -169 -77 -169 -72 0 3 -10
-2 -22 -10 -12 -9 -32 -16 -44 -16 -11 0 -24 -3 -28 -7 -3 -4 -12 -8 -19 -10
-7 -1 -42 -11 -78 -22 -36 -10 -83 -21 -105 -25 -21 -3 -50 -8 -64 -11 -14 -4
-41 -9 -60 -13 -53 -9 -482 -7 -505 2 -11 5 -31 10 -45 11 -14 2 -41 6 -60 10
-19 4 -44 8 -55 10 -21 3 -99 23 -125 33 -8 3 -18 6 -22 7 -5 2 -9 3 -10 4 -2
2 -13 4 -25 7 -24 4 -152 54 -223 86 -25 12 -47 20 -49 19 -2 -2 -7 2 -10 7
-7 10 -80 55 -126 76 -17 8 -39 24 -49 35 -11 12 -23 21 -28 21 -5 0 -16 6
-23 13 -8 6 -20 17 -27 22 -118 89 -291 263 -358 359 -8 12 -22 30 -32 40 -10
11 -18 26 -18 33 0 7 -4 13 -8 13 -8 0 -72 104 -102 165 -8 17 -17 32 -20 35
-7 7 -78 167 -85 193 -2 4 -4 9 -5 12 -1 3 -3 8 -5 13 -1 4 -5 16 -9 27 -19
48 -26 72 -30 97 -3 15 -8 33 -13 40 -8 15 -11 27 -17 78 -3 19 -7 46 -10 60
-16 72 -23 122 -21 145 2 14 0 27 -4 30 -8 4 -5 312 3 395 2 25 9 68 16 95 6
28 13 61 15 75 8 55 15 89 31 131 8 24 18 55 20 68 3 13 11 35 18 50 7 14 19
44 26 66 21 66 116 250 146 286 8 8 14 21 14 27 0 7 5 12 10 12 6 0 10 6 10
13 0 7 8 22 18 33 10 10 29 35 42 54 14 19 34 46 45 60 26 32 239 246 287 288
46 40 219 162 229 162 7 0 76 44 88 56 7 7 -1 4 -51 -16z"/>
<path d="M5234 3988 c-85 -61 -137 -91 -179 -104 -5 -2 -37 -13 -70 -24 -33
-12 -69 -23 -80 -25 -11 -2 -54 -10 -95 -19 -41 -9 -84 -19 -95 -21 -11 -2
-36 -7 -55 -10 -72 -12 -86 -14 -105 -18 -38 -8 -165 -26 -230 -33 -22 -2 -76
-8 -120 -14 -44 -5 -102 -12 -130 -14 -92 -8 -200 -18 -240 -22 -22 -2 -58 -6
-80 -8 -22 -2 -40 -5 -40 -6 0 -1 -11 -3 -25 -6 -65 -11 -181 -38 -235 -56
-33 -11 -64 -21 -70 -22 -11 -3 -39 -13 -70 -26 -50 -20 -224 -106 -260 -128
-22 -14 -42 -24 -44 -23 -2 2 -7 -1 -10 -6 -3 -5 -36 -30 -72 -55 -90 -64
-110 -81 -203 -173 -84 -83 -146 -152 -146 -161 0 -3 -10 -20 -22 -37 -23 -32
-31 -46 -66 -116 -57 -111 -85 -193 -98 -286 -16 -113 -13 -123 21 -58 17 33
40 67 75 110 6 7 10 15 10 18 0 8 57 70 104 114 90 85 116 106 161 132 19 12
35 25 35 30 0 5 5 9 11 9 6 0 23 9 38 19 36 26 210 117 241 126 14 4 45 16 69
27 24 11 54 22 67 24 13 2 36 9 51 16 16 6 35 12 43 14 8 2 38 8 65 14 28 7
61 13 75 16 14 2 49 8 79 13 91 17 168 23 351 26 96 2 202 7 235 10 33 4 98 8
145 11 182 9 257 20 359 50 31 9 62 17 69 17 6 0 12 4 12 9 0 4 11 8 25 8 14
0 25 4 25 10 0 5 3 9 8 8 13 -3 102 41 150 74 82 57 136 108 184 174 17 24 36
44 41 44 6 0 7 3 4 7 -4 3 -3 11 2 17 44 53 115 221 126 295 2 13 7 27 12 30
7 5 15 41 9 41 -1 0 -29 -19 -62 -42z"/>
<path d="M4962 3146 c-23 -13 -53 -27 -65 -31 -12 -4 -24 -8 -27 -10 -39 -17
-99 -32 -160 -40 -25 -3 -63 -9 -85 -12 -22 -4 -49 -8 -60 -9 -11 0 -27 -3
-35 -6 -8 -4 -28 -6 -45 -6 -16 0 -59 -3 -95 -7 -36 -4 -85 -8 -110 -10 -25
-2 -56 -6 -70 -8 -14 -3 -70 -8 -125 -12 -55 -3 -127 -8 -160 -10 -33 -3 -127
-10 -210 -16 -168 -12 -226 -17 -270 -23 -16 -3 -50 -7 -75 -10 -25 -2 -59
-10 -75 -16 -17 -6 -32 -12 -35 -12 -3 0 -15 -4 -28 -9 -13 -5 -35 -12 -50
-15 -15 -4 -74 -29 -131 -56 -210 -102 -374 -237 -493 -408 -38 -55 -108 -179
-109 -195 0 -2 -7 -22 -16 -42 -33 -79 -36 -88 -38 -98 -1 -5 -3 -12 -4 -15
-7 -14 -21 -82 -37 -174 -3 -16 -7 -32 -9 -36 -9 -14 -20 -188 -15 -240 1 -23
3 -23 17 10 8 19 17 46 20 60 4 24 17 56 69 168 13 28 23 53 21 55 -1 1 8 13
20 27 13 13 23 28 23 33 0 24 165 201 232 248 18 13 42 31 52 41 11 10 23 18
27 18 4 0 14 6 21 13 17 16 191 103 201 99 4 -1 7 2 7 6 0 5 6 9 13 9 6 0 46
12 87 26 41 14 93 28 115 31 22 3 63 10 90 16 28 6 86 12 130 14 44 2 80 5 80
6 0 0 81 3 180 5 236 5 323 12 440 34 94 17 97 18 145 32 25 7 48 13 52 13 3
1 10 4 14 9 4 4 15 7 24 7 17 0 181 68 190 79 3 3 10 7 17 8 14 3 99 56 136
86 33 26 137 127 131 127 -3 0 5 10 16 23 28 29 78 121 92 169 6 21 14 38 17
38 4 0 7 9 8 20 2 25 -2 25 -55 -4z"/>
<path d="M3206 2264 c-87 -25 -114 -35 -196 -77 -135 -68 -219 -138 -335 -280
-25 -30 -85 -126 -85 -136 0 -6 -4 -11 -9 -11 -5 0 -12 -13 -16 -30 -4 -16
-11 -30 -17 -30 -6 0 -8 -7 -4 -15 3 -8 1 -15 -4 -15 -21 0 -36 -185 -15 -198
5 -3 185 -6 398 -7 l388 0 7 28 c5 21 8 652 3 764 -1 20 -6 23 -37 20 -20 -1
-55 -7 -78 -13z"/>
</g>
</svg>
